#!OML:ASF X:\für Bonn\!DataBase\2005_08_10_Bjorn_Final\c3d\bjorn.ASF
:FULLY-SPECIFIED
:DEGREES
228
root -21.1658 19.4264 0.217409 -181.279 -83.4884 -176.995
lowerback -6.06363 1.86335 4.501
upperback 10.4094 1.50153 0.633926
thorax 15.0594 1.0205 -1.5613
lowerneck 0.034955 -4.93103 6.04993
upperneck 22.4862 -8.25551 0.814596
head 6.67794 -3.72903 -1.235
rclavicle -3.43897e-014 1.98785e-015
rhumerus -20.4284 13.7588 -71.6929
rradius 110.244
rwrist -17.0245
rhand -17.1492 14.5369
rfingers 7.12502
rthumb 9.09141 -15.2472
lclavicle -3.43897e-014 1.98785e-015
lhumerus -23.7882 1.96776 89.0054
lradius 23.2933
lwrist -27.8832
lhand -15.9705 -7.58284
lfingers 7.12502
lthumb 10.2286 22.1485
rfemur -10.9888 -8.32065 16.6305
rtibia 25.372
rfoot -8.14769 20.0023
rtoes 2.77892
lfemur -8.18205 14.4005 -16.6861
ltibia 24.0065
lfoot -10.1126 -9.6461
ltoes 0.570216
229
root -21.1411 19.424 0.23205 -181.055 -83.4165 -177.432
lowerback -5.54466 1.87093 4.86117
upperback 10.7097 1.43946 0.728213
thorax 15.1063 1.01725 -1.67739
lowerneck 0.0745903 -5.02846 6.3196
upperneck 22.2789 -8.38682 0.843229
head 6.59333 -3.77222 -1.26837
rclavicle 2.18663e-014 6.36111e-015
rhumerus -20.7685 14.2374 -72.1675
rradius 108.944
rwrist -16.564
rhand -17.3507 14.6558
rfingers 7.12502
rthumb 8.89696 -15.1366
lclavicle 2.18663e-014 6.36111e-015
lhumerus -23.7548 0.959799 89.3757
lradius 23.6889
lwrist -27.247
lhand -15.9086 -7.53003
lfingers 7.12502
lthumb 10.2884 22.1983
rfemur -10.8512 -8.11899 16.5283
rtibia 25.3872
rfoot -8.16366 19.8663
rtoes 2.55452
lfemur -8.04562 14.2527 -16.7531
ltibia 24.0396
lfoot -10.1078 -9.4354
ltoes 0.581077
230
root -21.1152 19.4218 0.247264 -180.851 -83.3348 -177.856
lowerback -5.00492 1.87208 5.21705
upperback 11.022 1.36664 0.847024
thorax 15.1541 1.006 -1.76523
lowerneck 0.114071 -5.12145 6.56518
upperneck 22.0322 -8.49903 0.848099
head 6.49574 -3.8107 -1.30293
rclavicle -7.7526e-015 -1.03368e-014
rhumerus -21.0516 14.7371 -72.6066
rradius 107.371
rwrist -15.9746
rhand -17.7604 15.1017
rfingers 7.12502
rthumb 8.50152 -14.7072
lclavicle -7.7526e-015 -1.03368e-014
lhumerus -23.7154 0.0200524 89.7703
lradius 24.0844
lwrist -26.6088
lhand -15.9006 -7.46176
lfingers 7.12502
lthumb 10.2961 22.2662
rfemur -10.711 -7.90667 16.4216
rtibia 25.405
rfoot -8.17935 19.7262
rtoes 2.47331
lfemur -7.89005 14.0523 -16.8279
ltibia 24.0796
lfoot -10.1518 -9.15245
ltoes 0.383308
231
root -21.0884 19.4186 0.263413 -180.44 -83.2294 -178.509
lowerback -4.41338 1.88408 5.58075
upperback 11.3308 1.31545 0.944296
thorax 15.1685 1.00682 -1.87794
lowerneck 0.192472 -5.22135 6.88143
upperneck 21.7636 -8.61874 0.846863
head 6.38171 -3.85009 -1.34863
rclavicle -8.54774e-015 0
rhumerus -21.3243 15.1553 -73.0728
rradius 105.689
rwrist -15.5832
rhand -18.1319 15.6282
rfingers 7.12502
rthumb 8.14306 -14.1949
lclavicle -8.54774e-015 0
lhumerus -23.7197 -0.947396 90.1375
lradius 24.5174
lwrist -26.0211
lhand -15.8477 -7.35652
lfingers 7.12502
lthumb 10.3471 22.3689
rfemur -10.558 -7.68164 16.284
rtibia 25.4296
rfoot -8.1733 19.6008
rtoes 2.3707
lfemur -7.71731 13.8646 -16.9324
ltibia 24.122
lfoot -10.1981 -8.87304
ltoes 0.202161
232
root -21.06 19.4151 0.280503 -180.419 -83.1384 -178.786
lowerback -3.784 1.87507 5.98984
upperback 11.6513 1.22766 1.07599
thorax 15.1729 0.991699 -1.98366
lowerneck 0.31397 -5.31216 7.1412
upperneck 21.4256 -8.71198 0.858129
head 6.24118 -3.88289 -1.37615
rclavicle 4.01545e-014 -8.74653e-015
rhumerus -21.4887 15.5766 -73.4613
rradius 103.912
rwrist -15.3294
rhand -18.4372 16.0831
rfingers 7.12502
rthumb 7.84841 -13.7512
lclavicle 4.01545e-014 -8.74653e-015
lhumerus -23.7228 -1.87865 90.5331
lradius 24.9527
lwrist -25.4209
lhand -15.8307 -7.29994
lfingers 7.12502
lthumb 10.3634 22.4247
rfemur -10.3959 -7.47582 16.1919
rtibia 25.4567
rfoot -8.19816 19.471
rtoes 2.16952
lfemur -7.53031 13.6176 -16.9898
ltibia 24.1699
lfoot -10.2297 -8.55079
ltoes 0.118766
233
root -21.0314 19.4112 0.297664 -180.065 -83.0273 -179.403
lowerback -3.14503 1.87515 6.34805
upperback 11.9807 1.15192 1.2634
thorax 15.1808 0.970759 -1.9957
lowerneck 0.449375 -5.40882 7.23249
upperneck 21.0727 -8.79918 0.877801
head 6.09991 -3.92473 -1.37251
rclavicle -2.0276e-014 7.15625e-015
rhumerus -21.5788 15.949 -73.6692
rradius 102.115
rwrist -15.1077
rhand -18.6725 16.343
rfingers 7.12502
rthumb 7.62127 -13.4997
lclavicle -2.0276e-014 7.15625e-015
lhumerus -23.719 -2.68709 91.0396
lradius 25.3733
lwrist -24.9366
lhand -15.7821 -7.26046
lfingers 7.12502
lthumb 10.4104 22.4618
rfemur -10.2308 -7.20712 16.0555
rtibia 25.4927
rfoot -8.22469 19.3033
rtoes 1.97121
lfemur -7.34135 13.4046 -17.0968
ltibia 24.2185
lfoot -10.2849 -8.22616
ltoes -0.173764
234
root -21.0021 19.4071 0.315237 -179.842 -82.9209 -179.89
lowerback -2.49677 1.86173 6.70458
upperback 12.3262 1.05395 1.47653
thorax 15.2023 0.935917 -1.98038
lowerneck 0.546967 -5.50267 7.27522
upperneck 20.7147 -8.88225 0.905913
head 5.96593 -3.96676 -1.35942
rclavicle -2.90226e-014 1.43125e-014
rhumerus -21.4952 16.2755 -73.7823
rradius 100.243
rwrist -14.923
rhand -18.786 16.3238
rfingers 7.12502
rthumb 7.51168 -13.5228
lclavicle -2.90226e-014 1.43125e-014
lhumerus -23.6989 -3.48452 91.5703
lradius 25.8077
lwrist -24.4377
lhand -15.7971 -7.23759
lfingers 7.12502
lthumb 10.3959 22.4854
rfemur -10.0673 -6.95784 15.9349
rtibia 25.5275
rfoot -8.24793 19.1465
rtoes 1.85174
lfemur -7.15672 13.2601 -17.183
ltibia 24.2738
lfoot -10.3179 -7.97513
ltoes -0.343381
235
root -20.9716 19.4022 0.332587 -179.431 -82.8219 -180.58
lowerback -1.80844 1.82712 7.03633
upperback 12.6631 0.936565 1.68072
thorax 15.1863 0.888023 -1.96394
lowerneck 0.698338 -5.58628 7.32558
upperneck 20.3553 -8.94731 0.927131
head 5.82286 -4.00181 -1.34679
rclavicle 8.74653e-015 -5.56597e-015
rhumerus -21.3301 16.578 -73.8905
rradius 98.2892
rwrist -14.7921
rhand -18.8088 16.1539
rfingers 7.12502
rthumb 7.4897 -13.6935
lclavicle 8.74653e-015 -5.56597e-015
lhumerus -23.7081 -4.20614 92.066
lradius 26.2448
lwrist -23.9602
lhand -15.8016 -7.23746
lfingers 7.12502
lthumb 10.3915 22.4858
rfemur -9.89419 -6.69421 15.7872
rtibia 25.5665
rfoot -8.26235 18.9689
rtoes 1.75886
lfemur -6.96445 13.0491 -17.303
ltibia 24.3301
lfoot -10.3505 -7.66657
ltoes -0.530112
236
root -20.9407 19.3975 0.350042 -179.403 -82.7179 -180.909
lowerback -1.08203 1.78149 7.41644
upperback 13.014 0.799581 1.89709
thorax 15.1671 0.833679 -1.9621
lowerneck 0.89975 -5.66576 7.3682
upperneck 19.9283 -8.99873 0.970683
head 5.6523 -4.03221 -1.3216
rclavicle -3.33958e-014 1.59028e-015
rhumerus -20.9721 16.8829 -73.9432
rradius 96.1593
rwrist -14.732
rhand -18.8819 15.8494
rfingers 7.12502
rthumb 7.41919 -14.0005
lclavicle -3.33958e-014 1.59028e-015
lhumerus -23.7191 -4.90776 92.5497
lradius 26.6983
lwrist -23.5089
lhand -15.8368 -7.25154
lfingers 7.12502
lthumb 10.3576 22.4734
rfemur -9.69817 -6.39356 15.6914
rtibia 25.6039
rfoot -8.30971 18.7492
rtoes 1.58188
lfemur -6.7472 12.9036 -17.3619
ltibia 24.3922
lfoot -10.3698 -7.43446
ltoes -0.747995
237
root -20.9079 19.3928 0.36785 -179.378 -82.6208 -181.228
lowerback -0.332532 1.74149 7.82998
upperback 13.3629 0.675123 2.09213
thorax 15.1375 0.790087 -1.99883
lowerneck 1.07312 -5.75499 7.47109
upperneck 19.5141 -9.07074 1.0223
head 5.48905 -4.06756 -1.30549
rclavicle -9.54166e-015 1.27222e-014
rhumerus -20.4279 17.1044 -73.9935
rradius 93.8277
rwrist -14.7642
rhand -18.8839 15.5159
rfingers 7.12502
rthumb 7.41724 -14.3341
lclavicle -9.54166e-015 1.27222e-014
lhumerus -23.7466 -5.6676 92.9867
lradius 27.1592
lwrist -23.056
lhand -15.881 -7.32649
lfingers 7.12502
lthumb 10.3149 22.4006
rfemur -9.51248 -6.12119 15.5975
rtibia 25.6389
rfoot -8.34275 18.5652
rtoes 1.43441
lfemur -6.55144 12.7226 -17.4248
ltibia 24.4596
lfoot -10.4028 -7.17364
ltoes -0.934462
238
root -20.875 19.3875 0.386021 -179.467 -82.4991 -181.433
lowerback 0.426434 1.71982 8.29079
upperback 13.7264 0.573895 2.27923
thorax 15.13 0.763337 -2.06467
lowerneck 1.24983 -5.86849 7.61985
upperneck 19.0344 -9.17026 1.08619
head 5.3034 -4.11451 -1.29144
rclavicle -3.10104e-014 -2.54444e-014
rhumerus -19.7184 17.2385 -74.0115
rradius 91.2213
rwrist -14.6922
rhand -18.8812 15.4984
rfingers 7.12502
rthumb 7.41978 -14.3515
lclavicle -3.10104e-014 -2.54444e-014
lhumerus -23.7551 -6.48778 93.411
lradius 27.6361
lwrist -22.606
lhand -15.96 -7.35851
lfingers 7.12502
lthumb 10.2387 22.3723
rfemur -9.32948 -5.85634 15.5203
rtibia 25.6747
rfoot -8.36726 18.3854
rtoes 1.19538
lfemur -6.35327 12.6003 -17.4738
ltibia 24.5299
lfoot -10.4155 -6.93221
ltoes -1.14623
239
root -20.8402 19.3825 0.405195 -179.564 -82.3659 -181.637
lowerback 1.20065 1.69255 8.75329
upperback 14.1306 0.458734 2.48202
thorax 15.1679 0.727758 -2.11268
lowerneck 1.32882 -5.97991 7.77341
upperneck 18.5141 -9.2622 1.12252
head 5.12008 -4.15831 -1.28856
rclavicle -3.4191e-014 -3.02153e-014
rhumerus -18.8286 17.3094 -73.9271
rradius 88.5732
rwrist -14.7828
rhand -18.7656 15.4115
rfingers 7.12502
rthumb 7.53143 -14.4344
lclavicle -3.4191e-014 -3.02153e-014
lhumerus -23.6629 -7.29015 93.8404
lradius 28.0709
lwrist -22.1989
lhand -16.0682 -7.43686
lfingers 7.12502
lthumb 10.1343 22.2991
rfemur -9.15979 -5.59443 15.4381
rtibia 25.7341
rfoot -8.39582 18.2375
rtoes 0.999684
lfemur -6.14054 12.5077 -17.5265
ltibia 24.5817
lfoot -10.4123 -6.71802
ltoes -1.28336
240
root -20.8039 19.3767 0.425874 -179.072 -82.2204 -182.462
lowerback 2.01633 1.65896 9.15709
upperback 14.5671 0.342998 2.65882
thorax 15.2225 0.685894 -2.15512
lowerneck 1.26005 -6.07427 7.87711
upperneck 18.0476 -9.35262 1.20154
head 4.98264 -4.19804 -1.27206
rclavicle 1.74931e-014 1.74931e-014
rhumerus -17.8179 17.2715 -73.8063
rradius 85.9293
rwrist -14.9067
rhand -18.5457 15.2739
rfingers 7.12502
rthumb 7.74364 -14.5643
lclavicle 1.74931e-014 1.74931e-014
lhumerus -23.5284 -8.02366 94.2375
lradius 28.5139
lwrist -21.8123
lhand -16.1662 -7.53499
lfingers 7.12502
lthumb 10.0398 22.2055
rfemur -8.98366 -5.4068 15.2474
rtibia 25.8186
rfoot -8.40239 18.1688
rtoes 0.868207
lfemur -5.89341 12.4352 -17.6699
ltibia 24.6105
lfoot -10.4072 -6.50709
ltoes -1.49017
